<svg width="25" height="13" viewBox="0 0 25 13" fill="none" xmlns="http://www.w3.org/2000/svg">
<path d="M0.00563477 12.0056C0.00489655 10.4305 0.314701 8.87065 0.917357 7.41515C1.52001 5.95964 2.40372 4.63697 3.51802 3.52267C4.63233 2.40837 5.9554 1.52425 7.41171 0.920794C8.86801 0.317338 10.429 0.00636277 12.0056 0.00562386C13.5822 0.00488494 15.1435 0.314397 16.6004 0.916488C18.0573 1.51858 19.3812 2.40146 20.4965 3.51472C21.6119 4.62797 22.4968 5.94981 23.1008 7.40475C23.7049 8.85969 24.0161 10.4192 24.0169 11.9944L18.0363 11.9972C18.0359 11.2067 17.8797 10.424 17.5766 9.69387C17.2734 8.96371 16.8293 8.30034 16.2696 7.74165C15.7099 7.18297 15.0455 6.73989 14.3143 6.43773C13.5832 6.13557 12.7996 5.98024 12.0084 5.98061C11.2172 5.98098 10.4338 6.13705 9.70297 6.43989C8.97212 6.74274 8.30814 7.18643 7.74892 7.74565C7.18971 8.30486 6.74622 8.96864 6.44378 9.69909C6.14133 10.4295 5.98586 11.2123 5.98623 12.0028L0.00563477 12.0056Z" fill="#3A86FF"/>
</svg>
